<mxfile host="app.diagrams.net" modified="2024-01-08T21:24:24.660Z" agent="Mozilla/5.0 (Windows NT 10.0; Win64; x64; rv:121.0) Gecko/20100101 Firefox/121.0" etag="68xCVosyfHQAOuOofsM3" version="22.1.17" type="device">
  <diagram name="Page-1" id="Sc2Toq94Crbu9Lqqzxq8">
    <mxGraphModel dx="2887" dy="2798" grid="1" gridSize="10" guides="1" tooltips="1" connect="1" arrows="1" fold="1" page="1" pageScale="1" pageWidth="1200" pageHeight="1920" math="0" shadow="0">
      <root>
        <mxCell id="0" />
        <mxCell id="1" parent="0" />
        <mxCell id="8K1ygucyF_KnKSIVNmMP-18" style="edgeStyle=orthogonalEdgeStyle;rounded=0;orthogonalLoop=1;jettySize=auto;html=1;entryX=0.5;entryY=0;entryDx=0;entryDy=0;" parent="1" source="8K1ygucyF_KnKSIVNmMP-2" target="ZECMZDe8AO3PE_TLF8Np-2" edge="1">
          <mxGeometry relative="1" as="geometry" />
        </mxCell>
        <mxCell id="8K1ygucyF_KnKSIVNmMP-2" value="main" style="rounded=0;whiteSpace=wrap;html=1;" parent="1" vertex="1">
          <mxGeometry x="235" y="-120" width="120" height="60" as="geometry" />
        </mxCell>
        <mxCell id="8K1ygucyF_KnKSIVNmMP-3" value="01_pullData" style="swimlane;startSize=0;" parent="1" vertex="1">
          <mxGeometry x="-920" y="520" width="600" height="420" as="geometry">
            <mxRectangle x="80" y="90" width="110" height="30" as="alternateBounds" />
          </mxGeometry>
        </mxCell>
        <mxCell id="8K1ygucyF_KnKSIVNmMP-16" style="edgeStyle=orthogonalEdgeStyle;rounded=0;orthogonalLoop=1;jettySize=auto;html=1;entryX=0.5;entryY=0;entryDx=0;entryDy=0;exitX=0.5;exitY=1;exitDx=0;exitDy=0;" parent="8K1ygucyF_KnKSIVNmMP-3" source="8K1ygucyF_KnKSIVNmMP-6" target="8K1ygucyF_KnKSIVNmMP-13" edge="1">
          <mxGeometry relative="1" as="geometry">
            <Array as="points" />
          </mxGeometry>
        </mxCell>
        <mxCell id="8K1ygucyF_KnKSIVNmMP-17" style="edgeStyle=orthogonalEdgeStyle;rounded=0;orthogonalLoop=1;jettySize=auto;html=1;entryX=0.5;entryY=0;entryDx=0;entryDy=0;" parent="8K1ygucyF_KnKSIVNmMP-3" source="8K1ygucyF_KnKSIVNmMP-6" target="8K1ygucyF_KnKSIVNmMP-7" edge="1">
          <mxGeometry relative="1" as="geometry" />
        </mxCell>
        <mxCell id="8K1ygucyF_KnKSIVNmMP-6" value="&lt;div&gt;00_pullData&lt;/div&gt;&lt;div&gt;pullData(dsUrl,isR)&lt;br&gt;&lt;/div&gt;" style="rounded=0;whiteSpace=wrap;html=1;" parent="8K1ygucyF_KnKSIVNmMP-3" vertex="1">
          <mxGeometry x="130" y="30" width="190" height="90" as="geometry" />
        </mxCell>
        <mxCell id="8K1ygucyF_KnKSIVNmMP-14" style="edgeStyle=orthogonalEdgeStyle;rounded=0;orthogonalLoop=1;jettySize=auto;html=1;entryX=0.5;entryY=0;entryDx=0;entryDy=0;" parent="8K1ygucyF_KnKSIVNmMP-3" source="8K1ygucyF_KnKSIVNmMP-7" target="8K1ygucyF_KnKSIVNmMP-12" edge="1">
          <mxGeometry relative="1" as="geometry" />
        </mxCell>
        <mxCell id="8K1ygucyF_KnKSIVNmMP-7" value="&lt;div&gt;01_pullRDSfromUrl&lt;/div&gt;&lt;div&gt;pullRDSfromUrl(dsUrl)&lt;br&gt;&lt;/div&gt;" style="rounded=0;whiteSpace=wrap;html=1;" parent="8K1ygucyF_KnKSIVNmMP-3" vertex="1">
          <mxGeometry x="30" y="220" width="150" height="65" as="geometry" />
        </mxCell>
        <mxCell id="8K1ygucyF_KnKSIVNmMP-12" value="01_pullRDSfromUrl_test" style="rounded=0;whiteSpace=wrap;html=1;" parent="8K1ygucyF_KnKSIVNmMP-3" vertex="1">
          <mxGeometry x="35" y="315" width="140" height="60" as="geometry" />
        </mxCell>
        <mxCell id="8K1ygucyF_KnKSIVNmMP-15" style="edgeStyle=orthogonalEdgeStyle;rounded=0;orthogonalLoop=1;jettySize=auto;html=1;entryX=0.5;entryY=0;entryDx=0;entryDy=0;" parent="8K1ygucyF_KnKSIVNmMP-3" source="8K1ygucyF_KnKSIVNmMP-13" target="8K1ygucyF_KnKSIVNmMP-11" edge="1">
          <mxGeometry relative="1" as="geometry" />
        </mxCell>
        <mxCell id="8K1ygucyF_KnKSIVNmMP-13" value="&lt;div&gt;02_pullDTAfromUrl&lt;/div&gt;&lt;div&gt;pullDTAfromUrl(dsUrl)&lt;br&gt;&lt;/div&gt;" style="rounded=0;whiteSpace=wrap;html=1;" parent="8K1ygucyF_KnKSIVNmMP-3" vertex="1">
          <mxGeometry x="270" y="220" width="150" height="70" as="geometry" />
        </mxCell>
        <mxCell id="8K1ygucyF_KnKSIVNmMP-11" value="&lt;div&gt;02_pullDTAfromUrl_test&lt;/div&gt;" style="rounded=0;whiteSpace=wrap;html=1;" parent="8K1ygucyF_KnKSIVNmMP-3" vertex="1">
          <mxGeometry x="270" y="315" width="150" height="60" as="geometry" />
        </mxCell>
        <mxCell id="ZECMZDe8AO3PE_TLF8Np-76" value="Pulls in either .rds or .dta datasets. Defined in the registry-specific mainFunctions above" style="shape=note;strokeWidth=2;fontSize=14;size=20;whiteSpace=wrap;html=1;fillColor=#fff2cc;strokeColor=#d6b656;fontColor=#666600;" vertex="1" parent="8K1ygucyF_KnKSIVNmMP-3">
          <mxGeometry x="360" y="10" width="240" height="70" as="geometry" />
        </mxCell>
        <mxCell id="8K1ygucyF_KnKSIVNmMP-4" value="02_criticalChecks" style="swimlane;startSize=0;" parent="1" vertex="1">
          <mxGeometry x="-250" y="520" width="1730" height="630" as="geometry">
            <mxRectangle x="640" y="100" width="140" height="30" as="alternateBounds" />
          </mxGeometry>
        </mxCell>
        <mxCell id="8K1ygucyF_KnKSIVNmMP-44" style="edgeStyle=orthogonalEdgeStyle;rounded=0;orthogonalLoop=1;jettySize=auto;html=1;entryX=0.5;entryY=0;entryDx=0;entryDy=0;exitX=0.5;exitY=1;exitDx=0;exitDy=0;curved=1;" parent="8K1ygucyF_KnKSIVNmMP-4" source="8K1ygucyF_KnKSIVNmMP-21" target="8K1ygucyF_KnKSIVNmMP-41" edge="1">
          <mxGeometry relative="1" as="geometry" />
        </mxCell>
        <mxCell id="sLg6Lj15BcnOGbAF9K_9-5" style="edgeStyle=orthogonalEdgeStyle;rounded=0;orthogonalLoop=1;jettySize=auto;html=1;entryX=0.5;entryY=0;entryDx=0;entryDy=0;curved=1;exitX=0.5;exitY=1;exitDx=0;exitDy=0;" parent="8K1ygucyF_KnKSIVNmMP-4" source="8K1ygucyF_KnKSIVNmMP-21" target="sLg6Lj15BcnOGbAF9K_9-1" edge="1">
          <mxGeometry relative="1" as="geometry" />
        </mxCell>
        <mxCell id="ZECMZDe8AO3PE_TLF8Np-17" style="edgeStyle=orthogonalEdgeStyle;rounded=0;orthogonalLoop=1;jettySize=auto;html=1;entryX=0.5;entryY=0;entryDx=0;entryDy=0;curved=1;" edge="1" parent="8K1ygucyF_KnKSIVNmMP-4" source="8K1ygucyF_KnKSIVNmMP-21" target="ZECMZDe8AO3PE_TLF8Np-11">
          <mxGeometry relative="1" as="geometry" />
        </mxCell>
        <mxCell id="ZECMZDe8AO3PE_TLF8Np-18" style="edgeStyle=orthogonalEdgeStyle;rounded=0;orthogonalLoop=1;jettySize=auto;html=1;entryX=0.5;entryY=0;entryDx=0;entryDy=0;curved=1;" edge="1" parent="8K1ygucyF_KnKSIVNmMP-4" source="8K1ygucyF_KnKSIVNmMP-21" target="ZECMZDe8AO3PE_TLF8Np-14">
          <mxGeometry relative="1" as="geometry" />
        </mxCell>
        <mxCell id="ZECMZDe8AO3PE_TLF8Np-22" style="edgeStyle=orthogonalEdgeStyle;rounded=0;orthogonalLoop=1;jettySize=auto;html=1;entryX=0.5;entryY=0;entryDx=0;entryDy=0;curved=1;exitX=0.5;exitY=1;exitDx=0;exitDy=0;" edge="1" parent="8K1ygucyF_KnKSIVNmMP-4" source="8K1ygucyF_KnKSIVNmMP-21" target="ZECMZDe8AO3PE_TLF8Np-19">
          <mxGeometry relative="1" as="geometry" />
        </mxCell>
        <mxCell id="8K1ygucyF_KnKSIVNmMP-21" value="&lt;div&gt;00_criticalChecks&lt;/div&gt;&lt;div&gt;criticalChecks(dsToCheck,compDsToCheck,listOfEssVars,...)&lt;/div&gt;" style="rounded=0;whiteSpace=wrap;html=1;" parent="8K1ygucyF_KnKSIVNmMP-4" vertex="1">
          <mxGeometry x="360" y="30" width="400" height="90" as="geometry" />
        </mxCell>
        <mxCell id="8K1ygucyF_KnKSIVNmMP-23" value="&lt;div&gt;01_checkForDuplicateUniqueIds&lt;/div&gt;&lt;div&gt;checkForDuplicateUniqueIds(dsToCheck,...)&lt;br&gt;&lt;/div&gt;" style="rounded=0;whiteSpace=wrap;html=1;" parent="8K1ygucyF_KnKSIVNmMP-4" vertex="1">
          <mxGeometry x="20" y="175" width="260" height="65" as="geometry" />
        </mxCell>
        <mxCell id="8K1ygucyF_KnKSIVNmMP-20" style="edgeStyle=orthogonalEdgeStyle;rounded=0;orthogonalLoop=1;jettySize=auto;html=1;entryX=0.5;entryY=0;entryDx=0;entryDy=0;exitX=0.5;exitY=1;exitDx=0;exitDy=0;curved=1;" parent="8K1ygucyF_KnKSIVNmMP-4" source="8K1ygucyF_KnKSIVNmMP-21" target="8K1ygucyF_KnKSIVNmMP-23" edge="1">
          <mxGeometry relative="1" as="geometry" />
        </mxCell>
        <mxCell id="8K1ygucyF_KnKSIVNmMP-24" value="01_checkForDuplicateUniqueIds_test" style="rounded=0;whiteSpace=wrap;html=1;" parent="8K1ygucyF_KnKSIVNmMP-4" vertex="1">
          <mxGeometry x="20" y="270" width="260" height="60" as="geometry" />
        </mxCell>
        <mxCell id="8K1ygucyF_KnKSIVNmMP-22" style="edgeStyle=orthogonalEdgeStyle;rounded=0;orthogonalLoop=1;jettySize=auto;html=1;entryX=0.5;entryY=0;entryDx=0;entryDy=0;" parent="8K1ygucyF_KnKSIVNmMP-4" source="8K1ygucyF_KnKSIVNmMP-23" target="8K1ygucyF_KnKSIVNmMP-24" edge="1">
          <mxGeometry relative="1" as="geometry" />
        </mxCell>
        <mxCell id="8K1ygucyF_KnKSIVNmMP-26" value="&lt;div&gt;04_checkForMissingVariableLabels&lt;/div&gt;&lt;div&gt;checkForMissingVariableLabels(dsToCheck)&lt;br&gt;&lt;/div&gt;" style="rounded=0;whiteSpace=wrap;html=1;" parent="8K1ygucyF_KnKSIVNmMP-4" vertex="1">
          <mxGeometry x="520" y="390" width="280" height="70" as="geometry" />
        </mxCell>
        <mxCell id="8K1ygucyF_KnKSIVNmMP-19" style="edgeStyle=orthogonalEdgeStyle;rounded=0;orthogonalLoop=1;jettySize=auto;html=1;entryX=0.5;entryY=0;entryDx=0;entryDy=0;exitX=0.5;exitY=1;exitDx=0;exitDy=0;curved=1;" parent="8K1ygucyF_KnKSIVNmMP-4" source="8K1ygucyF_KnKSIVNmMP-21" target="8K1ygucyF_KnKSIVNmMP-26" edge="1">
          <mxGeometry relative="1" as="geometry" />
        </mxCell>
        <mxCell id="8K1ygucyF_KnKSIVNmMP-27" value="&lt;div&gt;04_checkForMissingVariableLabels_test&lt;/div&gt;" style="rounded=0;whiteSpace=wrap;html=1;" parent="8K1ygucyF_KnKSIVNmMP-4" vertex="1">
          <mxGeometry x="520" y="490" width="280" height="55" as="geometry" />
        </mxCell>
        <mxCell id="8K1ygucyF_KnKSIVNmMP-25" style="edgeStyle=orthogonalEdgeStyle;rounded=0;orthogonalLoop=1;jettySize=auto;html=1;entryX=0.5;entryY=0;entryDx=0;entryDy=0;" parent="8K1ygucyF_KnKSIVNmMP-4" source="8K1ygucyF_KnKSIVNmMP-26" target="8K1ygucyF_KnKSIVNmMP-27" edge="1">
          <mxGeometry relative="1" as="geometry" />
        </mxCell>
        <mxCell id="8K1ygucyF_KnKSIVNmMP-39" style="edgeStyle=orthogonalEdgeStyle;rounded=0;orthogonalLoop=1;jettySize=auto;html=1;entryX=0.5;entryY=1;entryDx=0;entryDy=0;curved=1;" parent="8K1ygucyF_KnKSIVNmMP-4" source="8K1ygucyF_KnKSIVNmMP-31" target="8K1ygucyF_KnKSIVNmMP-21" edge="1">
          <mxGeometry relative="1" as="geometry" />
        </mxCell>
        <mxCell id="8K1ygucyF_KnKSIVNmMP-31" value="&lt;div&gt;05_checkForAddedRows&lt;/div&gt;&lt;div&gt;checkForAddedRows(dsToCheck,compDsToCheck)&lt;br&gt;&lt;/div&gt;" style="rounded=0;whiteSpace=wrap;html=1;" parent="8K1ygucyF_KnKSIVNmMP-4" vertex="1">
          <mxGeometry x="690" y="175" width="300" height="70" as="geometry" />
        </mxCell>
        <mxCell id="8K1ygucyF_KnKSIVNmMP-32" value="&lt;div&gt;05_checkForAddedRows_test&lt;/div&gt;" style="rounded=0;whiteSpace=wrap;html=1;" parent="8K1ygucyF_KnKSIVNmMP-4" vertex="1">
          <mxGeometry x="740" y="270" width="200" height="55" as="geometry" />
        </mxCell>
        <mxCell id="8K1ygucyF_KnKSIVNmMP-33" style="edgeStyle=orthogonalEdgeStyle;rounded=0;orthogonalLoop=1;jettySize=auto;html=1;entryX=0.5;entryY=0;entryDx=0;entryDy=0;" parent="8K1ygucyF_KnKSIVNmMP-4" source="8K1ygucyF_KnKSIVNmMP-31" target="8K1ygucyF_KnKSIVNmMP-32" edge="1">
          <mxGeometry relative="1" as="geometry" />
        </mxCell>
        <mxCell id="8K1ygucyF_KnKSIVNmMP-40" style="edgeStyle=orthogonalEdgeStyle;rounded=0;orthogonalLoop=1;jettySize=auto;html=1;entryX=1;entryY=0.25;entryDx=0;entryDy=0;" parent="8K1ygucyF_KnKSIVNmMP-4" source="8K1ygucyF_KnKSIVNmMP-28" target="8K1ygucyF_KnKSIVNmMP-21" edge="1">
          <mxGeometry relative="1" as="geometry" />
        </mxCell>
        <mxCell id="8K1ygucyF_KnKSIVNmMP-28" value="&lt;font style=&quot;font-size: 12px;&quot;&gt;NOTE: (...) in the criticalChecks function call is the list of varnames that define the unique dataset keys&lt;/font&gt;" style="shape=note;strokeWidth=2;fontSize=14;size=20;whiteSpace=wrap;html=1;fillColor=#fff2cc;strokeColor=#d6b656;fontColor=#666600;" parent="8K1ygucyF_KnKSIVNmMP-4" vertex="1">
          <mxGeometry x="820" y="10" width="360" height="50" as="geometry" />
        </mxCell>
        <mxCell id="8K1ygucyF_KnKSIVNmMP-41" value="&lt;div&gt;06_checkForRemovedRows&lt;/div&gt;&lt;div&gt;checkForRemovedRows(dsToCheck,compDsToCheck,...)&lt;br&gt;&lt;/div&gt;" style="rounded=0;whiteSpace=wrap;html=1;" parent="8K1ygucyF_KnKSIVNmMP-4" vertex="1">
          <mxGeometry x="850" y="395" width="350" height="70" as="geometry" />
        </mxCell>
        <mxCell id="8K1ygucyF_KnKSIVNmMP-42" value="&lt;div&gt;06_checkForRemovedRows_test&lt;/div&gt;" style="rounded=0;whiteSpace=wrap;html=1;" parent="8K1ygucyF_KnKSIVNmMP-4" vertex="1">
          <mxGeometry x="925" y="490" width="200" height="55" as="geometry" />
        </mxCell>
        <mxCell id="8K1ygucyF_KnKSIVNmMP-43" style="edgeStyle=orthogonalEdgeStyle;rounded=0;orthogonalLoop=1;jettySize=auto;html=1;entryX=0.5;entryY=0;entryDx=0;entryDy=0;" parent="8K1ygucyF_KnKSIVNmMP-4" source="8K1ygucyF_KnKSIVNmMP-41" target="8K1ygucyF_KnKSIVNmMP-42" edge="1">
          <mxGeometry relative="1" as="geometry" />
        </mxCell>
        <mxCell id="sLg6Lj15BcnOGbAF9K_9-1" value="&lt;div&gt;07_checkForGivenItemsNonresponse&lt;/div&gt;&lt;div&gt;checkForGivenItemsNonresponse(dsToCheck,listOfItems)&lt;br&gt;&lt;/div&gt;" style="rounded=0;whiteSpace=wrap;html=1;" parent="8K1ygucyF_KnKSIVNmMP-4" vertex="1">
          <mxGeometry x="1060" y="175" width="410" height="70" as="geometry" />
        </mxCell>
        <mxCell id="sLg6Lj15BcnOGbAF9K_9-2" value="&lt;div&gt;07_checkForGivenItemsNonresponse_test&lt;/div&gt;" style="rounded=0;whiteSpace=wrap;html=1;" parent="8K1ygucyF_KnKSIVNmMP-4" vertex="1">
          <mxGeometry x="1060" y="270" width="410" height="55" as="geometry" />
        </mxCell>
        <mxCell id="sLg6Lj15BcnOGbAF9K_9-3" style="edgeStyle=orthogonalEdgeStyle;rounded=0;orthogonalLoop=1;jettySize=auto;html=1;entryX=0.5;entryY=0;entryDx=0;entryDy=0;" parent="8K1ygucyF_KnKSIVNmMP-4" source="sLg6Lj15BcnOGbAF9K_9-1" target="sLg6Lj15BcnOGbAF9K_9-2" edge="1">
          <mxGeometry relative="1" as="geometry" />
        </mxCell>
        <mxCell id="ZECMZDe8AO3PE_TLF8Np-11" value="&lt;div&gt;02_checkForOmittedVariables&lt;/div&gt;&lt;div&gt;checkForOmittedVariables(dsToCheck,suppVars)&lt;br&gt;&lt;/div&gt;" style="rounded=0;whiteSpace=wrap;html=1;" vertex="1" parent="8K1ygucyF_KnKSIVNmMP-4">
          <mxGeometry x="130" y="400" width="300" height="65" as="geometry" />
        </mxCell>
        <mxCell id="ZECMZDe8AO3PE_TLF8Np-12" value="02_checkForOmittedVariables_test" style="rounded=0;whiteSpace=wrap;html=1;" vertex="1" parent="8K1ygucyF_KnKSIVNmMP-4">
          <mxGeometry x="150" y="497" width="260" height="60" as="geometry" />
        </mxCell>
        <mxCell id="ZECMZDe8AO3PE_TLF8Np-13" style="edgeStyle=orthogonalEdgeStyle;rounded=0;orthogonalLoop=1;jettySize=auto;html=1;entryX=0.5;entryY=0;entryDx=0;entryDy=0;" edge="1" parent="8K1ygucyF_KnKSIVNmMP-4" source="ZECMZDe8AO3PE_TLF8Np-11" target="ZECMZDe8AO3PE_TLF8Np-12">
          <mxGeometry relative="1" as="geometry" />
        </mxCell>
        <mxCell id="ZECMZDe8AO3PE_TLF8Np-14" value="&lt;div&gt;03_checkForExtraVariables&lt;/div&gt;&lt;div&gt;checkForExtraVariables(dsToCheck,suppVars)&lt;br&gt;&lt;/div&gt;" style="rounded=0;whiteSpace=wrap;html=1;" vertex="1" parent="8K1ygucyF_KnKSIVNmMP-4">
          <mxGeometry x="310" y="175" width="260" height="65" as="geometry" />
        </mxCell>
        <mxCell id="ZECMZDe8AO3PE_TLF8Np-15" value="03_checkForExtraVariables_test" style="rounded=0;whiteSpace=wrap;html=1;" vertex="1" parent="8K1ygucyF_KnKSIVNmMP-4">
          <mxGeometry x="310" y="270" width="260" height="60" as="geometry" />
        </mxCell>
        <mxCell id="ZECMZDe8AO3PE_TLF8Np-16" style="edgeStyle=orthogonalEdgeStyle;rounded=0;orthogonalLoop=1;jettySize=auto;html=1;entryX=0.5;entryY=0;entryDx=0;entryDy=0;" edge="1" parent="8K1ygucyF_KnKSIVNmMP-4" source="ZECMZDe8AO3PE_TLF8Np-14" target="ZECMZDe8AO3PE_TLF8Np-15">
          <mxGeometry relative="1" as="geometry" />
        </mxCell>
        <mxCell id="ZECMZDe8AO3PE_TLF8Np-19" value="&lt;div&gt;08_checkForMonthlyMissingness&lt;/div&gt;&lt;div&gt;checkForMonthlyMissingness(dsToCheck,compDs, listOfItems)&lt;br&gt;&lt;/div&gt;" style="rounded=0;whiteSpace=wrap;html=1;" vertex="1" parent="8K1ygucyF_KnKSIVNmMP-4">
          <mxGeometry x="1240" y="380" width="410" height="70" as="geometry" />
        </mxCell>
        <mxCell id="ZECMZDe8AO3PE_TLF8Np-20" value="08_checkForMonthlyMissingness_test" style="rounded=0;whiteSpace=wrap;html=1;" vertex="1" parent="8K1ygucyF_KnKSIVNmMP-4">
          <mxGeometry x="1240" y="475" width="410" height="55" as="geometry" />
        </mxCell>
        <mxCell id="ZECMZDe8AO3PE_TLF8Np-21" style="edgeStyle=orthogonalEdgeStyle;rounded=0;orthogonalLoop=1;jettySize=auto;html=1;entryX=0.5;entryY=0;entryDx=0;entryDy=0;" edge="1" parent="8K1ygucyF_KnKSIVNmMP-4" source="ZECMZDe8AO3PE_TLF8Np-19" target="ZECMZDe8AO3PE_TLF8Np-20">
          <mxGeometry relative="1" as="geometry" />
        </mxCell>
        <mxCell id="ZECMZDe8AO3PE_TLF8Np-37" value="&lt;div&gt;The only thing &quot;registry-dependent&quot; in this step is the datasets to be checks and the uniqueKeys, supposedVariables, and essentialVariables for each dataset&lt;/div&gt;&lt;div&gt;&lt;br&gt;&lt;/div&gt;&lt;div&gt;These are defined in the registry-specific &quot;mainFunctions&quot; code above&lt;br&gt;&lt;/div&gt;" style="shape=note;strokeWidth=2;fontSize=14;size=20;whiteSpace=wrap;html=1;fillColor=#fff2cc;strokeColor=#d6b656;fontColor=#666600;" vertex="1" parent="8K1ygucyF_KnKSIVNmMP-4">
          <mxGeometry x="1370" y="10" width="360" height="130" as="geometry" />
        </mxCell>
        <mxCell id="sLg6Lj15BcnOGbAF9K_9-6" value="RegistryDQChecks_architecture" style="text;html=1;strokeColor=none;fillColor=none;align=center;verticalAlign=middle;whiteSpace=wrap;rounded=0;fontSize=30;" parent="1" vertex="1">
          <mxGeometry x="750" y="-250" width="60" height="30" as="geometry" />
        </mxCell>
        <mxCell id="ZECMZDe8AO3PE_TLF8Np-1" value="00_mainFunctions" style="swimlane;startSize=0;" vertex="1" parent="1">
          <mxGeometry x="-30" y="40" width="1050" height="350" as="geometry" />
        </mxCell>
        <mxCell id="ZECMZDe8AO3PE_TLF8Np-6" style="edgeStyle=orthogonalEdgeStyle;rounded=0;orthogonalLoop=1;jettySize=auto;html=1;entryX=0.5;entryY=0;entryDx=0;entryDy=0;exitX=0.5;exitY=1;exitDx=0;exitDy=0;" edge="1" parent="ZECMZDe8AO3PE_TLF8Np-1" source="ZECMZDe8AO3PE_TLF8Np-2" target="ZECMZDe8AO3PE_TLF8Np-3">
          <mxGeometry relative="1" as="geometry" />
        </mxCell>
        <mxCell id="ZECMZDe8AO3PE_TLF8Np-7" style="edgeStyle=orthogonalEdgeStyle;rounded=0;orthogonalLoop=1;jettySize=auto;html=1;entryX=0.5;entryY=0;entryDx=0;entryDy=0;exitX=0.5;exitY=1;exitDx=0;exitDy=0;" edge="1" parent="ZECMZDe8AO3PE_TLF8Np-1" source="ZECMZDe8AO3PE_TLF8Np-2" target="ZECMZDe8AO3PE_TLF8Np-4">
          <mxGeometry relative="1" as="geometry" />
        </mxCell>
        <mxCell id="ZECMZDe8AO3PE_TLF8Np-8" style="edgeStyle=orthogonalEdgeStyle;rounded=0;orthogonalLoop=1;jettySize=auto;html=1;entryX=0.5;entryY=0;entryDx=0;entryDy=0;exitX=0.5;exitY=1;exitDx=0;exitDy=0;" edge="1" parent="ZECMZDe8AO3PE_TLF8Np-1" source="ZECMZDe8AO3PE_TLF8Np-2" target="ZECMZDe8AO3PE_TLF8Np-5">
          <mxGeometry relative="1" as="geometry" />
        </mxCell>
        <mxCell id="ZECMZDe8AO3PE_TLF8Np-31" style="edgeStyle=orthogonalEdgeStyle;rounded=0;orthogonalLoop=1;jettySize=auto;html=1;entryX=0.5;entryY=0;entryDx=0;entryDy=0;exitX=0.5;exitY=1;exitDx=0;exitDy=0;" edge="1" parent="ZECMZDe8AO3PE_TLF8Np-1" source="ZECMZDe8AO3PE_TLF8Np-2" target="ZECMZDe8AO3PE_TLF8Np-30">
          <mxGeometry relative="1" as="geometry" />
        </mxCell>
        <mxCell id="ZECMZDe8AO3PE_TLF8Np-2" value="00_mainFunctions" style="rounded=0;whiteSpace=wrap;html=1;" vertex="1" parent="ZECMZDe8AO3PE_TLF8Np-1">
          <mxGeometry x="265" y="30" width="120" height="60" as="geometry" />
        </mxCell>
        <mxCell id="ZECMZDe8AO3PE_TLF8Np-27" style="edgeStyle=orthogonalEdgeStyle;rounded=0;orthogonalLoop=1;jettySize=auto;html=1;entryX=0;entryY=0.5;entryDx=0;entryDy=0;" edge="1" parent="ZECMZDe8AO3PE_TLF8Np-1" source="ZECMZDe8AO3PE_TLF8Np-3" target="ZECMZDe8AO3PE_TLF8Np-24">
          <mxGeometry relative="1" as="geometry" />
        </mxCell>
        <mxCell id="ZECMZDe8AO3PE_TLF8Np-3" value="01_adRun" style="rounded=0;whiteSpace=wrap;html=1;" vertex="1" parent="ZECMZDe8AO3PE_TLF8Np-1">
          <mxGeometry x="40" y="160" width="120" height="60" as="geometry" />
        </mxCell>
        <mxCell id="ZECMZDe8AO3PE_TLF8Np-26" style="edgeStyle=orthogonalEdgeStyle;rounded=0;orthogonalLoop=1;jettySize=auto;html=1;entryX=0.5;entryY=0;entryDx=0;entryDy=0;" edge="1" parent="ZECMZDe8AO3PE_TLF8Np-1" source="ZECMZDe8AO3PE_TLF8Np-4" target="ZECMZDe8AO3PE_TLF8Np-24">
          <mxGeometry relative="1" as="geometry" />
        </mxCell>
        <mxCell id="ZECMZDe8AO3PE_TLF8Np-4" value="02_msRun" style="rounded=0;whiteSpace=wrap;html=1;" vertex="1" parent="ZECMZDe8AO3PE_TLF8Np-1">
          <mxGeometry x="265" y="160" width="120" height="60" as="geometry" />
        </mxCell>
        <mxCell id="ZECMZDe8AO3PE_TLF8Np-25" style="edgeStyle=orthogonalEdgeStyle;rounded=0;orthogonalLoop=1;jettySize=auto;html=1;entryX=1;entryY=0.5;entryDx=0;entryDy=0;" edge="1" parent="ZECMZDe8AO3PE_TLF8Np-1" source="ZECMZDe8AO3PE_TLF8Np-5" target="ZECMZDe8AO3PE_TLF8Np-24">
          <mxGeometry relative="1" as="geometry" />
        </mxCell>
        <mxCell id="ZECMZDe8AO3PE_TLF8Np-5" value="03_psoRun" style="rounded=0;whiteSpace=wrap;html=1;" vertex="1" parent="ZECMZDe8AO3PE_TLF8Np-1">
          <mxGeometry x="490" y="160" width="120" height="60" as="geometry" />
        </mxCell>
        <mxCell id="ZECMZDe8AO3PE_TLF8Np-24" value="" style="rounded=0;whiteSpace=wrap;html=1;" vertex="1" parent="ZECMZDe8AO3PE_TLF8Np-1">
          <mxGeometry x="265" y="260" width="120" height="60" as="geometry" />
        </mxCell>
        <mxCell id="ZECMZDe8AO3PE_TLF8Np-32" style="edgeStyle=orthogonalEdgeStyle;rounded=0;orthogonalLoop=1;jettySize=auto;html=1;entryX=1;entryY=0.5;entryDx=0;entryDy=0;" edge="1" parent="ZECMZDe8AO3PE_TLF8Np-1" source="ZECMZDe8AO3PE_TLF8Np-30" target="ZECMZDe8AO3PE_TLF8Np-24">
          <mxGeometry relative="1" as="geometry">
            <Array as="points">
              <mxPoint x="750" y="290" />
            </Array>
          </mxGeometry>
        </mxCell>
        <mxCell id="ZECMZDe8AO3PE_TLF8Np-30" value="xx_&amp;lt;reg&amp;gt;Run" style="rounded=0;whiteSpace=wrap;html=1;" vertex="1" parent="ZECMZDe8AO3PE_TLF8Np-1">
          <mxGeometry x="690" y="160" width="120" height="60" as="geometry" />
        </mxCell>
        <mxCell id="ZECMZDe8AO3PE_TLF8Np-77" value="This will be where the brunt of registry-specific work goes - primarily URL definitions, dataset names, and variables" style="shape=note;strokeWidth=2;fontSize=14;size=20;whiteSpace=wrap;html=1;fillColor=#fff2cc;strokeColor=#d6b656;fontColor=#666600;" vertex="1" parent="ZECMZDe8AO3PE_TLF8Np-1">
          <mxGeometry x="810" y="10" width="240" height="70" as="geometry" />
        </mxCell>
        <mxCell id="ZECMZDe8AO3PE_TLF8Np-9" style="edgeStyle=orthogonalEdgeStyle;rounded=0;orthogonalLoop=1;jettySize=auto;html=1;entryX=0.5;entryY=0;entryDx=0;entryDy=0;exitX=0.5;exitY=1;exitDx=0;exitDy=0;" edge="1" parent="1" source="ZECMZDe8AO3PE_TLF8Np-24" target="8K1ygucyF_KnKSIVNmMP-21">
          <mxGeometry relative="1" as="geometry" />
        </mxCell>
        <mxCell id="ZECMZDe8AO3PE_TLF8Np-10" style="edgeStyle=orthogonalEdgeStyle;rounded=0;orthogonalLoop=1;jettySize=auto;html=1;entryX=0.5;entryY=0;entryDx=0;entryDy=0;exitX=0.5;exitY=1;exitDx=0;exitDy=0;" edge="1" parent="1" source="ZECMZDe8AO3PE_TLF8Np-24" target="8K1ygucyF_KnKSIVNmMP-6">
          <mxGeometry relative="1" as="geometry" />
        </mxCell>
        <mxCell id="ZECMZDe8AO3PE_TLF8Np-28" value="03_checkDataStorage" style="swimlane;startSize=0;" vertex="1" parent="1">
          <mxGeometry x="1760" y="520" width="490" height="200" as="geometry" />
        </mxCell>
        <mxCell id="ZECMZDe8AO3PE_TLF8Np-78" value="This step is for storing the results of the checks in a location to be accessed in the report" style="shape=note;strokeWidth=2;fontSize=14;size=20;whiteSpace=wrap;html=1;fillColor=#fff2cc;strokeColor=#d6b656;fontColor=#666600;" vertex="1" parent="ZECMZDe8AO3PE_TLF8Np-28">
          <mxGeometry x="330" y="10" width="160" height="80" as="geometry" />
        </mxCell>
        <mxCell id="ZECMZDe8AO3PE_TLF8Np-29" value="04_checkDataReport" style="swimlane;startSize=0;" vertex="1" parent="1">
          <mxGeometry x="2500" y="520" width="470" height="200" as="geometry" />
        </mxCell>
        <mxCell id="ZECMZDe8AO3PE_TLF8Np-79" value="This step is for reporting on the checkData that has been stored" style="shape=note;strokeWidth=2;fontSize=14;size=20;whiteSpace=wrap;html=1;fillColor=#fff2cc;strokeColor=#d6b656;fontColor=#666600;" vertex="1" parent="ZECMZDe8AO3PE_TLF8Np-29">
          <mxGeometry x="310" y="10" width="160" height="80" as="geometry" />
        </mxCell>
        <mxCell id="ZECMZDe8AO3PE_TLF8Np-33" style="edgeStyle=orthogonalEdgeStyle;rounded=0;orthogonalLoop=1;jettySize=auto;html=1;entryX=0.5;entryY=0;entryDx=0;entryDy=0;exitX=0.5;exitY=1;exitDx=0;exitDy=0;" edge="1" parent="1" source="ZECMZDe8AO3PE_TLF8Np-24" target="ZECMZDe8AO3PE_TLF8Np-28">
          <mxGeometry relative="1" as="geometry" />
        </mxCell>
        <mxCell id="ZECMZDe8AO3PE_TLF8Np-34" style="edgeStyle=orthogonalEdgeStyle;rounded=0;orthogonalLoop=1;jettySize=auto;html=1;entryX=0.5;entryY=0;entryDx=0;entryDy=0;exitX=0.5;exitY=1;exitDx=0;exitDy=0;" edge="1" parent="1" source="ZECMZDe8AO3PE_TLF8Np-24" target="ZECMZDe8AO3PE_TLF8Np-29">
          <mxGeometry relative="1" as="geometry" />
        </mxCell>
        <mxCell id="ZECMZDe8AO3PE_TLF8Np-35" value="02a_nonCriticalChecks" style="swimlane;startSize=0;" vertex="1" parent="1">
          <mxGeometry x="1510" y="1230" width="610" height="680" as="geometry" />
        </mxCell>
        <mxCell id="ZECMZDe8AO3PE_TLF8Np-75" value="&lt;div&gt;These will be registry and dataset dependent - however there will be some reusable options such as: variableRanges, variableValues, and generalLogicChecks&lt;/div&gt;&lt;div&gt;&lt;br&gt;&lt;/div&gt;&lt;div&gt;More to come&lt;br&gt;&lt;/div&gt;" style="shape=note;strokeWidth=2;fontSize=14;size=20;whiteSpace=wrap;html=1;fillColor=#fff2cc;strokeColor=#d6b656;fontColor=#666600;" vertex="1" parent="ZECMZDe8AO3PE_TLF8Np-35">
          <mxGeometry x="250" y="10" width="360" height="130" as="geometry" />
        </mxCell>
        <mxCell id="ZECMZDe8AO3PE_TLF8Np-36" style="edgeStyle=orthogonalEdgeStyle;rounded=0;orthogonalLoop=1;jettySize=auto;html=1;entryX=0.5;entryY=0;entryDx=0;entryDy=0;exitX=0.5;exitY=1;exitDx=0;exitDy=0;" edge="1" parent="1" source="ZECMZDe8AO3PE_TLF8Np-24" target="ZECMZDe8AO3PE_TLF8Np-35">
          <mxGeometry relative="1" as="geometry">
            <Array as="points">
              <mxPoint x="295" y="440" />
              <mxPoint x="1610" y="440" />
            </Array>
          </mxGeometry>
        </mxCell>
      </root>
    </mxGraphModel>
  </diagram>
</mxfile>
